<svg width="93" height="92" viewBox="0 0 93 92" fill="none" xmlns="http://www.w3.org/2000/svg">
<g clip-path="url(#clip0_126_263)">
<path d="M91.8871 38.6975L76.4889 18.6947C76.214 18.3378 75.8156 18.0966 75.3718 18.0186C74.9281 17.9407 74.4713 18.0315 74.0912 18.2734L64.1494 24.5962H51.1832C51.0153 24.5962 50.8482 24.632 50.6869 24.6789L40.6334 27.5729L30.2018 24.7197L20.0656 18.2734C19.6916 18.0352 19.243 17.9432 18.8054 18.015C18.3679 18.0867 17.9721 18.3171 17.6937 18.6622L0.662232 39.7588C0.0500369 40.5167 0.151201 41.6238 0.889537 42.2589L9.81641 49.9413L17.8251 60.7337C15.4829 63.229 15.5285 67.1647 17.9654 69.6024C19.0457 70.6817 20.4194 71.2918 21.8323 71.4336C21.7827 71.7562 21.7579 72.0821 21.7579 72.4085C21.7579 74.1113 22.4211 75.7123 23.6249 76.9162C24.8295 78.1206 26.4305 78.7838 28.1332 78.7838C28.1566 78.7838 28.1789 78.7824 28.2015 78.7817C28.2006 78.8254 28.1986 78.8681 28.1986 78.9116C28.1986 80.6145 28.8618 82.2155 30.0656 83.42C31.27 84.6239 32.8712 85.2869 34.5739 85.2869C34.9073 85.2865 35.2401 85.2605 35.5694 85.2091C35.7107 86.6767 36.3589 88.0492 37.4026 89.0907C38.6449 90.3338 40.2776 90.955 41.9102 90.955C43.5429 90.955 45.1755 90.3338 46.4186 89.0907L47.3936 88.1157L47.8027 88.4456C49.0354 89.6395 50.6357 90.2362 52.236 90.2362C53.8686 90.2362 55.5012 89.6151 56.7436 88.372C58.012 87.1036 58.6332 85.4296 58.6071 83.7639C60.2721 83.789 61.9468 83.1688 63.2152 81.9011C64.482 80.6334 65.1032 78.9608 65.0786 77.2959C66.8131 77.3232 68.4585 76.6571 69.6859 75.4294C70.9544 74.1612 71.5755 72.4871 71.5495 70.8215C73.2159 70.8467 74.8892 70.2262 76.1576 68.958C78.3223 66.7933 78.601 63.4473 76.9956 60.9774L82.8432 48.7304L91.6346 41.1654C92.3611 40.5401 92.4719 39.4562 91.8872 38.6974L91.8871 38.6975ZM19.4885 22.1825L26.7771 26.817L10.9217 46.1334L4.56792 40.6649L19.4885 22.1825ZM20.5168 63.137L22.7165 60.9373C23.1753 60.4782 23.7812 60.1954 24.4277 60.1386C24.4432 60.1371 24.4593 60.1371 24.4748 60.1364C24.5535 60.1301 24.632 60.1258 24.7112 60.1265C25.4652 60.1371 26.1656 60.4453 26.6851 60.9934C27.7043 62.0708 27.6495 63.8312 26.5629 64.9177L24.4299 67.0508C23.351 68.1296 21.5956 68.1296 20.5168 67.0508C19.438 65.9714 19.438 64.2159 20.5168 63.1372V63.137ZM26.1762 74.3646C25.6533 73.8424 25.3655 73.1476 25.3655 72.4085C25.3655 71.6695 25.6533 70.9746 26.1762 70.4517L30.4417 66.186C31.2587 65.3691 32.5431 65.1452 33.5876 65.6428C34.6643 66.156 35.27 67.3246 35.1121 68.5003C35.0264 69.1309 34.737 69.7163 34.2881 70.1673L30.09 74.3648C29.5671 74.8877 28.8723 75.1754 28.1332 75.1754C27.3942 75.1754 26.6991 74.8877 26.1762 74.3646ZM32.617 80.8679C32.3591 80.6117 32.1546 80.3068 32.0155 79.971C31.8763 79.6352 31.8052 79.2751 31.8062 78.9116C31.8052 78.548 31.8764 78.1879 32.0156 77.852C32.1547 77.5161 32.3591 77.2112 32.617 76.9548L36.8817 72.6892C37.7555 71.8159 39.1572 71.628 40.2269 72.2506C41.204 72.8191 41.7156 73.9352 41.548 75.0469C41.4543 75.6615 41.1671 76.2303 40.7281 76.6705L36.5306 80.8679C36.0077 81.3908 35.3128 81.6786 34.5738 81.6786C33.8347 81.6786 33.1399 81.3908 32.617 80.8679ZM39.9532 86.5392C38.8744 85.4603 38.8744 83.7049 39.9532 82.6261L42.153 80.4264C42.2206 80.3588 42.2916 80.2947 42.3655 80.2341C42.7209 79.9452 43.1426 79.7493 43.5926 79.6641L43.6241 79.6598C43.7013 79.6458 43.78 79.6347 43.8586 79.6275C43.8902 79.6248 43.9218 79.6248 43.954 79.6226C44.0187 79.619 44.0825 79.6149 44.1477 79.6156C44.5646 79.6202 44.9749 79.7195 45.3478 79.906C45.7206 80.0925 46.0462 80.3614 46.2998 80.6923C47.1294 81.7767 47.0178 83.3876 45.9882 84.4181L43.8663 86.5399C42.7875 87.6187 41.0321 87.618 39.9532 86.5392ZM73.606 66.4064C72.5272 67.486 70.7716 67.4853 69.6928 66.4064C69.6537 66.3677 69.6128 66.3309 69.5701 66.2963L57.9703 54.5747C57.2692 53.8664 56.1271 53.8608 55.4188 54.5622C54.7108 55.2626 54.705 56.4045 55.4056 57.1128L67.131 68.9602L67.1351 68.9645C68.214 70.0433 68.214 71.7994 67.1351 72.8782C66.8788 73.1361 66.5738 73.3405 66.2379 73.4796C65.902 73.6188 65.5419 73.69 65.1783 73.689C64.8147 73.6901 64.4545 73.619 64.1185 73.4799C63.7826 73.3407 63.4776 73.1362 63.2213 72.8782L55.3774 64.9531C54.677 64.2448 53.5351 64.2392 52.8268 64.9396C52.1186 65.641 52.1129 66.7829 52.8135 67.4912L60.5372 75.295C60.5767 75.3441 60.6186 75.391 60.6635 75.4359C61.7423 76.5148 61.7423 78.271 60.6635 79.3499C59.5841 80.4287 57.828 80.428 56.749 79.3491L52.4683 75.0232C51.7672 74.3148 50.6251 74.3086 49.9167 75.0097C49.2088 75.7103 49.203 76.8522 49.9036 77.5605L54.0652 81.7649C54.1045 81.8141 54.1466 81.8619 54.1922 81.9068C55.2711 82.9855 55.2711 84.7416 54.1922 85.8204C53.1134 86.9 51.3578 86.8993 50.279 85.8204C50.155 85.6963 50.0089 85.6008 49.8698 85.4941C49.752 85.4043 49.7211 85.3417 49.78 85.1985C49.8396 85.0533 49.9288 84.922 49.9884 84.7761C50.0544 84.6133 50.1077 84.4454 50.1597 84.2771C50.4371 83.3797 50.5168 82.4328 50.3934 81.5016C50.1548 79.7265 49.1784 78.1248 47.6988 77.1113C46.8961 76.5632 45.9779 76.2072 45.0154 76.0709C45.4801 74.0214 44.9221 71.7992 43.4706 70.2656C42.2759 69.0036 40.6621 68.2953 38.9263 68.2714C38.863 68.2707 38.7996 68.2707 38.7362 68.2714C38.7748 66.6151 38.1725 64.9689 37.0306 63.7625C35.8353 62.5004 34.2216 61.7922 32.4863 61.7683C31.9706 61.7612 31.4497 61.8161 30.9473 61.9319C30.7324 60.4376 29.9793 59.0547 28.8387 58.0657C27.7052 57.0846 26.2796 56.5398 24.7614 56.5188C23.1631 56.4956 21.593 57.0851 20.4059 58.157L13.4326 48.7606L30.1155 28.4361L35.4325 29.8907L28.4885 42.1438C27.649 43.6255 27.4369 45.3451 27.8912 46.9864C28.3452 48.628 29.4108 49.994 30.8925 50.8335C30.985 50.8859 31.0785 50.9359 31.1732 50.9835C31.1804 50.9871 31.1872 50.9907 31.1949 50.9941C31.4428 51.1174 31.6983 51.2245 31.96 51.3148C33.1693 51.7339 34.4756 51.7795 35.7356 51.4315C37.3767 50.9772 38.7425 49.9111 39.582 48.43L44.0945 40.4669L52.1517 41.0383L73.6067 62.4927C74.6849 63.5722 74.6849 65.3276 73.606 66.4064ZM74.3535 58.1372L54.2264 38.0111C53.9192 37.7043 53.5118 37.5184 53.0787 37.4875L43.2135 36.7876C42.5312 36.7407 41.8533 37.1035 41.5163 37.6981L36.4429 46.6516C36.2645 46.9683 36.0251 47.2465 35.7385 47.4701C35.4519 47.6938 35.1238 47.8583 34.7732 47.9543C34.423 48.0522 34.0569 48.0796 33.696 48.035C33.3352 47.9905 32.9867 47.8748 32.6709 47.6947C32.3541 47.5163 32.0759 47.2768 31.8523 46.9902C31.6287 46.7036 31.4641 46.3755 31.3681 46.0248C31.2701 45.6747 31.2426 45.3085 31.2872 44.9476C31.3318 44.5867 31.4476 44.2383 31.628 43.9225L38.4006 31.9699L41.1449 31.1801C41.1633 31.1747 41.1809 31.1676 41.199 31.162L51.4419 28.2042H63.8179L79.2683 47.8449L74.3535 58.1372ZM81.6316 45.0132L67.3435 26.84L74.6356 22.2024L87.9866 39.5444L81.6316 45.0132Z" fill="#FFBA0A"/>
<path d="M55.9981 21.2086C56.4599 21.2086 56.9217 21.0325 57.2741 20.6802L69.5967 8.35756C70.3014 7.65283 70.3014 6.51073 69.5967 5.806C68.892 5.10127 67.75 5.10145 67.0453 5.806L54.7227 18.1288C54.5551 18.2963 54.4222 18.4952 54.3315 18.7141C54.2409 18.9329 54.1942 19.1676 54.1942 19.4045C54.1942 19.6414 54.2409 19.876 54.3315 20.0949C54.4222 20.3138 54.5551 20.5127 54.7227 20.6802C54.89 20.8479 55.0888 20.981 55.3077 21.0716C55.5266 21.1623 55.7612 21.2089 55.9981 21.2086ZM35.2498 20.6802C35.4172 20.848 35.6161 20.981 35.835 21.0717C36.054 21.1624 36.2887 21.2089 36.5257 21.2086C36.987 21.2086 37.4488 21.0325 37.8012 20.6802C37.9687 20.5127 38.1017 20.3138 38.1924 20.0949C38.2831 19.876 38.3297 19.6413 38.3297 19.4044C38.3297 19.1674 38.2831 18.9328 38.1924 18.7139C38.1017 18.495 37.9687 18.2961 37.8012 18.1286L25.4786 5.806C24.7738 5.10145 23.6319 5.10145 22.927 5.806C22.2221 6.51055 22.2224 7.65283 22.927 8.35756L35.2498 20.6802ZM46.2619 21.2086C47.2579 21.2086 48.066 20.4008 48.066 19.4047V9.20677C48.066 8.21076 47.2579 7.40288 46.2619 7.40288C45.2659 7.40288 44.4579 8.21076 44.4579 9.20695V19.4047C44.4579 20.4008 45.2659 21.2086 46.2619 21.2086ZM44.5969 2.66866C44.8834 3.36279 45.5973 3.8183 46.3503 3.77912C47.0942 3.74031 47.7479 3.23791 47.9781 2.52958C48.209 1.81568 47.9576 1.00223 47.3596 0.547445C46.7498 0.0827734 45.899 0.0568985 45.2609 0.478625C44.5493 0.948867 44.2735 1.88522 44.5969 2.66866Z" fill="#FFBA0A"/>
</g>
<defs>
<clipPath id="clip0_126_263">
<rect width="92" height="92" fill="white" transform="translate(0.261963)"/>
</clipPath>
</defs>
</svg>
