<svg width="85" height="85" viewBox="0 0 85 85" fill="none" xmlns="http://www.w3.org/2000/svg">
<g clip-path="url(#clip0_126_231)">
<path d="M46.8262 19.206L42.7616 6.87695L38.6971 19.206H25.6907L36.2584 26.7931L32.1939 39.1221L42.7616 31.535L53.3294 39.1221L49.2649 26.7931L59.8326 19.206H46.8262ZM48.0455 32.0769L42.7616 28.1479L37.4778 32.0769L39.51 25.8447L34.2262 21.9157H40.8649L42.8971 15.6834L44.9294 21.9157H51.5681L46.2842 25.8447L48.0455 32.0769Z" fill="#FFBA0A"/>
<path d="M68.5037 3.08346V0.373779H17.0199V3.08346H6.18115V4.4383C6.18115 14.3286 10.9231 23.677 18.9166 29.5028C22.0328 38.4447 28.6715 45.8964 37.3424 49.9609V65.406H33.2779C27.9941 65.406 23.7941 69.606 23.7941 74.8899V76.2448H17.0199V84.3738H68.5037V76.2448H61.7295V74.8899C61.7295 69.606 57.5295 65.406 52.2457 65.406H48.1812V49.9609C56.9876 46.0318 63.6263 38.4447 66.607 29.5028C74.6005 23.677 79.3424 14.3286 79.3424 4.4383V3.08346H68.5037ZM17.6973 24.8964C12.4134 19.8835 9.29728 13.1093 8.89083 5.79313H17.0199V18.3931C17.0199 19.206 17.0199 20.1544 17.1553 20.9673V21.3738C17.2908 22.1867 17.2908 22.9996 17.4263 23.677C17.4263 23.948 17.5618 24.0835 17.5618 24.3544C17.5618 24.6254 17.5618 24.7609 17.6973 24.8964ZM65.7941 78.9544V81.6641H19.7295V78.9544H61.7295H65.7941ZM52.2457 68.1157C56.0392 68.1157 59.0199 71.0964 59.0199 74.8899V76.2448H26.5037V74.8899C26.5037 71.0964 29.4844 68.1157 33.2779 68.1157H48.1812H52.2457ZM45.4715 51.0448V65.406H40.0521V51.0448C40.865 51.3157 41.6779 51.5867 42.3553 51.8577H42.7618L43.1682 51.7222C43.8457 51.5867 44.6586 51.3157 45.4715 51.0448ZM46.2844 47.7931C45.7424 48.0641 45.2005 48.1996 44.6586 48.4706C44.1166 48.7415 43.4392 48.877 42.8973 49.0125H42.6263C42.0844 48.877 41.407 48.606 40.865 48.4706C40.3231 48.3351 39.7812 48.0641 39.2392 47.7931C30.8392 44.2706 24.336 37.2254 21.3553 28.5544C21.2199 28.148 21.0844 27.877 21.0844 27.4706L20.6779 25.8447C20.6779 25.5738 20.5424 25.3028 20.5424 25.0318C20.407 24.4899 20.2715 23.948 20.2715 23.406C20.2715 22.9996 20.136 22.7286 20.136 22.3222C20.136 21.9157 20.0005 21.3738 20.0005 20.9673C20.0005 20.1544 19.865 19.3415 19.865 18.3931V3.08346H65.9295V18.3931C65.9295 19.206 65.9295 20.1544 65.7941 20.9673C65.7941 21.3738 65.6586 21.9157 65.6586 22.3222C65.6586 22.7286 65.5231 22.9996 65.5231 23.406C65.3876 23.948 65.2521 24.4899 65.2521 25.0318C65.2521 25.3028 65.1166 25.5738 65.1166 25.8447L64.7102 27.4706C64.5747 27.877 64.5747 28.148 64.4392 28.5544C61.1876 37.2254 54.6844 44.2706 46.2844 47.7931ZM67.8263 24.8964C67.8263 24.7609 67.8263 24.6254 67.9618 24.3544C67.9618 24.0835 68.0973 23.948 68.0973 23.677C68.2328 22.8641 68.3683 22.1867 68.3683 21.3738V20.9673C68.3683 20.1544 68.5037 19.206 68.5037 18.3931V5.79313H76.6328C76.2263 13.1093 73.1102 19.8835 67.8263 24.8964Z" fill="#FFBA0A"/>
</g>
<defs>
<clipPath id="clip0_126_231">
<rect width="84" height="84" fill="white" transform="translate(0.761963 0.373779)"/>
</clipPath>
</defs>
</svg>
