<svg width="93" height="92" viewBox="0 0 93 92" fill="none" xmlns="http://www.w3.org/2000/svg">
<path d="M91.9817 56.099L91.9955 56.0944L76.8907 23.1372L80.5538 21.3141L79.183 18.5694L75.6119 20.3481L75.1289 19.2947C75.0066 19.0278 74.8102 18.8017 74.5631 18.6432C74.3161 18.4847 74.0287 18.4004 73.7352 18.4004C73.4416 18.4004 73.1542 18.4847 72.9072 18.6432C72.6601 18.8017 72.4637 19.0278 72.3414 19.2947L71.9105 20.2361C69.3116 19.029 66.4808 18.4027 63.6152 18.4007H50.7353V15.3341H53.802V12.2675H51.1662L52.2687 7.8561C53.1151 4.46881 51.0554 1.03666 47.6681 0.190076C44.2808 -0.656317 40.8487 1.40332 40.0021 4.79061C39.7506 5.79691 39.7506 6.84962 40.0021 7.85591L41.1046 12.2673H38.4688V15.3339H41.5354V18.4006H28.6632C25.7947 18.4028 22.9612 19.0308 20.3603 20.2405L19.9294 19.2991C19.8071 19.0322 19.6107 18.8061 19.3636 18.6476C19.1165 18.4891 18.8292 18.4048 18.5356 18.4048C18.2421 18.4048 17.9547 18.4891 17.7076 18.6476C17.4605 18.8061 17.2642 19.0322 17.1418 19.2991L16.6588 20.3525L13.0877 18.5662L11.7169 21.3139L15.38 23.1446L0.275296 56.0944C0.182213 56.2946 0.134564 56.5129 0.135764 56.7338C0.142473 62.6587 4.94407 67.4603 10.869 67.467H26.2022C32.1272 67.4603 36.9287 62.6587 36.9355 56.7338C36.9316 56.5135 36.8793 56.2967 36.7821 56.099L21.636 23.0176C23.8377 21.9956 26.2359 21.4666 28.6632 21.4674H41.5354V77.5654L36.3007 82.8002H30.8022C26.5702 82.8052 23.1406 86.2348 23.1356 90.4668C23.1356 90.8735 23.2971 91.2635 23.5847 91.551C23.8722 91.8386 24.2622 92.0001 24.6689 92.0001H67.6019C68.0085 92.0001 68.3985 91.8386 68.6861 91.551C68.9736 91.2635 69.1352 90.8735 69.1352 90.4668C69.1302 86.2348 65.7006 82.8052 61.4686 82.8002H55.9701L50.7353 77.5654V21.4674H63.6152C66.0425 21.4666 68.4408 21.9956 70.6424 23.0176L55.4748 56.0944C55.3818 56.2946 55.3341 56.5129 55.3353 56.7338C55.342 62.6587 60.1436 67.4603 66.0686 67.467H81.4018C87.3267 67.4603 92.1283 62.6587 92.135 56.7338C92.1314 56.5134 92.079 56.2967 91.9817 56.099ZM26.2022 64.4004H10.869C7.22699 64.3963 4.08886 61.8345 3.35574 58.2671H33.7155C32.9826 61.8345 29.8442 64.3963 26.2022 64.4004ZM33.0132 55.2004H4.058L18.1431 24.4712C18.4003 24.5402 18.6709 24.5402 18.9281 24.4712L33.0132 55.2004ZM43.5701 4.31873C44.7642 2.90194 46.8808 2.72159 48.2976 3.91566C48.443 4.03833 48.578 4.17326 48.7006 4.31873C49.0066 4.70799 49.2193 5.16226 49.3221 5.6466C49.425 6.13093 49.4154 6.63241 49.294 7.11244L48.0045 12.2675H44.2663L42.9767 7.11244C42.8554 6.63241 42.8458 6.13094 42.9487 5.64661C43.0516 5.16228 43.2642 4.70801 43.5701 4.31873ZM44.6021 18.4007V15.3341H47.6687V18.4007H44.6021ZM47.6687 21.4674V76.6669H44.6021V21.4674H47.6687ZM61.4686 85.8668C62.4197 85.868 63.3471 86.1633 64.1237 86.7123C64.9003 87.2614 65.4881 88.0372 65.8064 88.9335H26.4644C26.7827 88.0372 27.3704 87.2614 28.147 86.7123C28.9236 86.1633 29.8511 85.868 30.8022 85.8668H61.4686ZM51.6339 82.8002H40.6369L43.7035 79.7336H48.5672L51.6339 82.8002ZM73.3396 24.4758C73.5927 24.5649 73.8705 24.5534 74.1154 24.4436L88.2128 55.2004H59.2575L73.3396 24.4758ZM81.4018 64.4004H66.0686C62.4265 64.3963 59.2884 61.8345 58.5553 58.2671H73.7352H88.915C88.1821 61.8345 85.0438 64.3963 81.4018 64.4004Z" fill="#FFBA0A"/>
<path d="M58.9114 14.5799C59.3732 14.5799 59.835 14.4038 60.1874 14.0514L65.3342 9.17795C66.039 8.4732 66.039 7.3311 65.3342 6.62636C64.6295 5.92162 63.4876 5.9218 62.7828 6.62636L57.636 11.5C57.4684 11.6675 57.3355 11.8664 57.2448 12.0853C57.1542 12.3042 57.1075 12.5388 57.1075 12.7757C57.1075 13.0126 57.1542 13.2472 57.2448 13.4661C57.3355 13.685 57.4684 13.8839 57.636 14.0514C57.8033 14.2191 58.0021 14.3522 58.221 14.4429C58.4399 14.5336 58.6745 14.5801 58.9114 14.5799ZM44.3345 7.48899C44.6209 8.18313 45.3348 8.63864 46.0879 8.59947C46.8318 8.56066 47.4855 8.05824 47.7157 7.34991C47.9466 6.636 47.6952 5.82255 47.0972 5.36776C46.4874 4.90309 45.6365 4.87721 44.9985 5.29894C44.2869 5.76919 44.0111 6.70554 44.3345 7.48899Z" fill="#FFBA0A"/>
<path d="M33.8601 14.649C33.3983 14.649 32.9365 14.4729 32.5842 14.1205L27.4373 9.24706C26.7326 8.54232 26.7326 7.40022 27.4373 6.69548C28.142 5.99074 29.284 5.99092 29.9887 6.69548L35.1356 11.5691C35.3031 11.7366 35.436 11.9355 35.5267 12.1544C35.6174 12.3733 35.6641 12.6079 35.6641 12.8448C35.6641 13.0818 35.6174 13.3164 35.5267 13.5352C35.436 13.7541 35.3031 13.953 35.1356 14.1205C34.9682 14.2883 34.7694 14.4213 34.5506 14.512C34.3317 14.6027 34.0971 14.6492 33.8601 14.649Z" fill="#FFBA0A"/>
</svg>
