<svg width="93" height="93" viewBox="0 0 93 93" fill="none" xmlns="http://www.w3.org/2000/svg">
<mask id="mask0_126_135" style="mask-type:luminance" maskUnits="userSpaceOnUse" x="0" y="0" width="93" height="93">
<path d="M0.135742 0.373802H92.1355V92.3735H0.135742V0.373802Z" fill="white"/>
</mask>
<g mask="url(#mask0_126_135)">
<path d="M84.0675 50.735C79.9883 49.9278 75.7248 51.9076 73.8207 55.8227C71.5548 60.4819 65.9409 62.422 61.2816 60.1562C59.1827 59.1354 56.8899 58.9681 54.7969 59.5186" stroke="#FFBA0A" stroke-width="3.05469" stroke-miterlimit="10" stroke-linecap="round" stroke-linejoin="round"/>
<path d="M58.1538 29.6449C63.5595 39.7512 72.8712 47.4416 84.0674 50.7351" stroke="#FFBA0A" stroke-width="3.05469" stroke-miterlimit="10" stroke-linecap="round" stroke-linejoin="round"/>
<path d="M79.13 90.5767H68.9978V80.4443H58.8655V70.3119H28.4683V80.4443H18.336V90.5767H8.20361" stroke="#FFBA0A" stroke-width="3.05469" stroke-miterlimit="10" stroke-linecap="round" stroke-linejoin="round"/>
<path d="M49.2674 7.77141C49.2674 4.6781 46.7599 2.17056 43.6666 2.17056C40.5734 2.17056 38.0659 4.6781 38.0659 7.77141C38.0659 10.8645 40.5734 13.3721 43.6666 13.3721C46.7599 13.3721 49.2674 10.8645 49.2674 7.77141Z" stroke="#FFBA0A" stroke-width="3.05469" stroke-miterlimit="10" stroke-linecap="round" stroke-linejoin="round"/>
<path d="M35.8125 23.3736V35.9158" stroke="#FFBA0A" stroke-width="3.05469" stroke-miterlimit="10" stroke-linecap="round" stroke-linejoin="round"/>
<path d="M35.8125 35.9158H43.6666" stroke="#FFBA0A" stroke-width="3.05469" stroke-miterlimit="10" stroke-linecap="round" stroke-linejoin="round"/>
<path d="M43.6668 13.3726H36.1626C34.9791 13.3725 33.8235 13.7316 32.8483 14.4022C31.8732 15.0729 31.1245 16.0236 30.7012 17.1287L28.604 22.6031C28.0894 23.9466 27.975 25.4104 28.2746 26.8176C28.5742 28.2247 29.2751 29.515 30.2924 30.5323L35.6763 35.9163" stroke="#FFBA0A" stroke-width="3.05469" stroke-miterlimit="10" stroke-linecap="round" stroke-linejoin="round"/>
<path d="M51.521 23.3736V35.9158" stroke="#FFBA0A" stroke-width="3.05469" stroke-miterlimit="10" stroke-linecap="round" stroke-linejoin="round"/>
<path d="M35.8125 35.9158L32.5593 65.8444C32.3367 67.8929 33.7408 69.7631 35.77 70.1208C37.8872 70.4942 39.9094 69.0892 40.2979 66.9745L43.6668 48.6412L47.0356 66.9745C47.4243 69.0892 49.4463 70.4942 51.5637 70.1208C53.5929 69.7631 54.997 67.8929 54.7742 65.8444L51.521 35.9158H43.6668" stroke="#FFBA0A" stroke-width="3.05469" stroke-miterlimit="10" stroke-linecap="round" stroke-linejoin="round"/>
<path d="M43.6665 13.3726H51.171C52.3544 13.3725 53.51 13.7316 54.4851 14.4022C55.4602 15.0729 56.2088 16.0236 56.6322 17.1287L58.7293 22.6031C59.244 23.9466 59.3584 25.4104 59.0588 26.8176C58.7592 28.2248 58.0583 29.515 57.041 30.5323L51.6572 35.9163" stroke="#FFBA0A" stroke-width="3.05469" stroke-miterlimit="10" stroke-linecap="round" stroke-linejoin="round"/>
<path d="M74.6758 14.9016C74.6758 12.9328 73.0798 11.3366 71.1108 11.3366C73.0798 11.3366 74.6758 9.74064 74.6758 7.77181C74.6758 9.74064 76.2718 11.3366 78.2408 11.3366C76.2718 11.3366 74.6758 12.9328 74.6758 14.9016Z" stroke="#FFBA0A" stroke-width="3.05469" stroke-miterlimit="10" stroke-linecap="round" stroke-linejoin="round"/>
<path d="M12.732 36.7998C12.732 34.831 11.136 33.235 9.16699 33.235C11.136 33.235 12.732 31.6388 12.732 29.67C12.732 31.6388 14.328 33.235 16.297 33.235C14.328 33.235 12.732 34.831 12.732 36.7998Z" stroke="#FFBA0A" stroke-width="3.05469" stroke-miterlimit="10" stroke-linecap="round" stroke-linejoin="round"/>
<path d="M51.7524 90.5767H68.9975" stroke="#FFBA0A" stroke-width="3.05469" stroke-miterlimit="10" stroke-linecap="round" stroke-linejoin="round"/>
<path d="M18.3364 90.5767H35.5813" stroke="#FFBA0A" stroke-width="3.05469" stroke-miterlimit="10" stroke-linecap="round" stroke-linejoin="round"/>
</g>
</svg>
