<svg width="108" height="44" viewBox="0 0 108 44" fill="none" xmlns="http://www.w3.org/2000/svg">
<circle opacity="0.1" cx="22" cy="22" r="22" fill="#FFBA0A"/>
<path d="M22 19.0301C20.3646 19.0301 19.03 20.3647 19.03 22C19.03 23.6354 20.3646 24.9699 22 24.9699C23.6353 24.9699 24.9699 23.6354 24.9699 22C24.9699 20.3647 23.6353 19.0301 22 19.0301ZM30.9076 22C30.9076 20.7701 30.9187 19.5514 30.8496 18.3238C30.7806 16.8979 30.4553 15.6324 29.4126 14.5897C28.3676 13.5447 27.1043 13.2217 25.6784 13.1526C24.4486 13.0835 23.2298 13.0947 22.0022 13.0947C20.7723 13.0947 19.5536 13.0835 18.326 13.1526C16.9001 13.2217 15.6346 13.5469 14.5918 14.5897C13.5469 15.6346 13.2239 16.8979 13.1548 18.3238C13.0857 19.5537 13.0969 20.7724 13.0969 22C13.0969 23.2276 13.0857 24.4486 13.1548 25.6762C13.2239 27.1022 13.5491 28.3677 14.5918 29.4104C15.6368 30.4553 16.9001 30.7784 18.326 30.8474C19.5559 30.9165 20.7746 30.9054 22.0022 30.9054C23.2321 30.9054 24.4508 30.9165 25.6784 30.8474C27.1043 30.7784 28.3699 30.4531 29.4126 29.4104C30.4575 28.3654 30.7806 27.1022 30.8496 25.6762C30.9209 24.4486 30.9076 23.2299 30.9076 22ZM22 26.5697C19.4712 26.5697 17.4303 24.5288 17.4303 22C17.4303 19.4712 19.4712 17.4304 22 17.4304C24.5288 17.4304 26.5696 19.4712 26.5696 22C26.5696 24.5288 24.5288 26.5697 22 26.5697ZM26.7568 18.3104C26.1664 18.3104 25.6896 17.8336 25.6896 17.2432C25.6896 16.6528 26.1664 16.176 26.7568 16.176C27.3472 16.176 27.824 16.6528 27.824 17.2432C27.8242 17.3834 27.7967 17.5223 27.7431 17.6518C27.6895 17.7814 27.6109 17.8991 27.5118 17.9982C27.4127 18.0974 27.295 18.176 27.1654 18.2295C27.0358 18.2831 26.897 18.3106 26.7568 18.3104Z" fill="#FFBA0A"/>
<circle opacity="0.1" cx="86" cy="22" r="22" fill="#FFBA0A"/>
<path d="M81.6493 19.4576H78.1782V30.6776H81.6493V19.4576Z" fill="#FFBA0A"/>
<path d="M79.9054 17.9912C80.3154 17.9945 80.7172 17.8759 81.0597 17.6504C81.4021 17.425 81.6699 17.1029 81.8291 16.725C81.9882 16.3471 82.0316 15.9305 81.9535 15.5279C81.8755 15.1254 81.6797 14.7551 81.3909 14.464C81.1021 14.173 80.7334 13.9742 80.3315 13.893C79.9296 13.8118 79.5126 13.8519 79.1335 14.008C78.7544 14.1642 78.4302 14.4294 78.202 14.7701C77.9739 15.1108 77.8521 15.5116 77.8521 15.9216C77.851 16.1923 77.9033 16.4606 78.0059 16.7111C78.1085 16.9617 78.2594 17.1895 78.4501 17.3817C78.6408 17.5739 78.8674 17.7266 79.1171 17.8312C79.3668 17.9358 79.6347 17.9902 79.9054 17.9912Z" fill="#FFBA0A"/>
<path d="M87.2144 24.7945C87.2144 23.2137 87.9396 22.2767 89.3248 22.2767C90.71 22.2767 91.2233 23.1811 91.2233 24.7945V30.6693H94.7189V23.5804C94.7189 20.5737 93.0159 19.1233 90.6448 19.1233C89.9694 19.1134 89.303 19.2786 88.7104 19.6027C88.1178 19.9269 87.6192 20.3989 87.2633 20.973V19.4656H83.8818V30.6693H87.2144V24.7945Z" fill="#FFBA0A"/>
</svg>
