<svg width="92" height="92" viewBox="0 0 92 92" fill="none" xmlns="http://www.w3.org/2000/svg">
<path d="M39.1698 17.1453C43.491 17.1453 46.9758 13.6605 46.9758 9.33926C46.9758 5.01805 43.491 1.5332 39.1698 1.5332C34.8486 1.5332 31.3637 5.01805 31.3637 9.33926C31.3637 13.6605 34.988 17.1453 39.1698 17.1453ZM39.1698 4.32108C41.9577 4.32108 44.188 6.55139 44.188 9.33926C44.188 12.1271 41.9577 14.3574 39.1698 14.3574C36.3819 14.3574 34.1516 12.1271 34.1516 9.33926C34.1516 6.55139 36.5213 4.32108 39.1698 4.32108ZM36.9395 78.8968C36.3819 78.3393 35.5455 78.3393 34.988 78.8968L31.0849 82.7999C30.5274 83.3575 30.5274 84.1938 31.0849 84.7514C31.6425 85.309 32.4789 85.309 33.0364 84.7514L34.5698 83.2181V89.0726C34.5698 89.909 35.1274 90.4665 35.9637 90.4665C36.8001 90.4665 37.3577 89.909 37.3577 89.0726V83.2181L38.891 84.7514C39.4486 85.309 40.2849 85.309 40.8425 84.7514C41.4001 84.1938 41.4001 83.3575 40.8425 82.7999L36.9395 78.8968ZM57.4304 66.212C56.8728 65.6544 56.0364 65.6544 55.4789 66.212L51.5758 70.115C51.0183 70.6726 51.0183 71.509 51.5758 72.0665C52.1334 72.6241 52.9698 72.6241 53.5274 72.0665L55.0607 70.5332V89.0726C55.0607 89.909 55.6183 90.4665 56.4546 90.4665C57.291 90.4665 57.8486 89.909 57.8486 89.0726V70.5332L59.3819 72.0665C59.9395 72.6241 60.7758 72.6241 61.3334 72.0665C61.891 71.509 61.891 70.6726 61.3334 70.115L57.4304 66.212ZM79.594 54.0847C79.0364 53.5271 78.2001 53.5271 77.6425 54.0847L73.7395 57.9878C73.1819 58.5453 73.1819 59.3817 73.7395 59.9393C74.2971 60.4968 75.1334 60.4968 75.691 59.9393L77.2243 58.4059V88.9332C77.2243 89.7696 77.7819 90.3272 78.6183 90.3272C79.4546 90.3272 80.0122 89.7696 80.0122 88.9332V58.4059L81.5455 59.9393C82.1031 60.4968 82.9395 60.4968 83.4971 59.9393C84.0546 59.3817 84.0546 58.5453 83.4971 57.9878L79.594 54.0847Z" fill="#FFBA0A"/>
<path d="M89.2122 46.697H65.794C64.9577 46.697 64.4001 47.2546 64.4001 48.091V60.2183H59.3819V49.2061C59.5213 45.1637 56.8728 41.6789 52.9698 40.7031L46.4183 39.0304L46.6971 29.4122L50.4607 32.0607C56.0365 35.9637 61.194 32.0607 64.5395 31.3637C66.3516 30.8061 67.4668 28.8546 67.188 27.0425C66.7698 24.6728 64.4001 23.1395 62.0304 23.9758L58.1274 25.2304C54.7819 26.3455 53.2486 23.1395 49.0668 20.3516C46.0001 17.8425 43.491 18.9576 32.4789 17.9819C30.1092 17.8425 27.8789 18.8183 26.3456 20.6304L16.7274 31.7819C16.4486 32.2001 16.1698 32.6183 16.0304 33.0364L13.9395 41.5395C13.2425 44.3273 15.4728 46.9758 18.2607 46.8364C20.0728 46.8364 21.6062 45.5819 22.1637 43.7698C25.091 34.7092 24.8122 35.1273 24.9516 34.9879L29.9698 29.5516V40.4243C29.9698 41.5395 30.2486 42.6546 30.6668 43.6304L28.0183 69.8364C27.8789 71.2304 28.4365 72.4849 29.2728 73.3213H22.8607C22.0243 73.3213 21.4668 73.8789 21.4668 74.7152V86.8425H2.78798C1.95162 86.8425 1.39404 87.4001 1.39404 88.2364C1.39404 89.0728 1.95162 89.6304 2.78798 89.6304H22.8607C23.6971 89.6304 24.2546 89.0728 24.2546 88.2364V76.1092H44.188C45.0243 76.1092 45.5819 75.5516 45.5819 74.7152V63.0061H65.794C66.6304 63.0061 67.188 62.4486 67.188 61.6122V49.4849H89.2122C90.0486 49.4849 90.6062 48.9273 90.6062 48.091C90.6062 47.2546 90.0486 46.697 89.2122 46.697ZM23.0001 33.1758C22.7213 33.594 22.4425 34.0122 22.3031 34.4304L19.5153 43.0728C19.3759 43.6304 18.8183 44.0486 18.1213 44.188C17.1456 44.188 16.3092 43.3516 16.588 42.3758C18.9577 33.4546 18.8183 33.7334 18.9577 33.594L28.5759 22.4425C29.5516 21.3273 30.9456 20.7698 32.4789 20.7698C43.9092 21.7455 45.4425 20.9092 47.394 22.5819C51.0183 24.9516 53.8062 29.8304 59.1031 28.0183L63.0062 26.7637C63.7031 26.4849 64.4001 27.0425 64.5395 27.7395C64.6789 28.297 64.2607 28.8546 63.7031 28.994C60.0789 29.8304 56.1759 32.897 52.1334 30.1092L46.2789 25.9273C45.8607 25.6486 45.3031 25.6486 44.885 25.7879C44.4668 26.0667 44.188 26.4849 44.188 27.0425L43.9092 40.4243C43.9092 41.1213 44.3274 41.6789 45.0243 41.8183L52.691 43.7698C55.3395 44.4667 57.0122 46.8364 56.8728 49.4849V60.497H52.9698V52.2728C52.9698 50.1819 51.5759 48.5092 49.485 48.091L36.8001 45.4425C34.5698 45.0243 33.0365 42.9334 33.0365 40.7031V26.0667C33.0365 25.5092 32.6183 24.9516 32.2001 24.8122C31.6425 24.5334 31.085 24.8122 30.6668 25.2304L23.0001 33.1758ZM36.1031 47.9516L38.3334 48.5092L34.8486 70.5334C34.7092 71.5092 33.7334 72.3455 32.7577 72.2061C31.6425 72.0667 30.8062 71.2304 30.9456 70.1152L33.3153 46.697C34.0122 47.2546 34.988 47.6728 36.1031 47.9516ZM44.188 60.3576C43.3516 60.3576 42.794 60.9152 42.794 61.7516V73.4607H36.3819C36.9395 72.7637 37.3577 71.9273 37.6365 71.091L41.1213 49.0667L48.788 50.7395C49.485 50.8789 50.0425 51.5758 50.0425 52.2728V60.497H44.188V60.3576Z" fill="#FFBA0A"/>
</svg>
