<svg width="79" height="21" viewBox="0 0 79 21" fill="none" xmlns="http://www.w3.org/2000/svg">
<path d="M20.9409 10.3647C20.9409 11.7412 20.684 13.0351 20.1701 14.2464C19.6562 15.4393 18.9405 16.4946 18.0228 17.4122C17.1235 18.3115 16.0407 19.0273 14.7744 19.5595C13.5264 20.0734 12.1591 20.3304 10.6725 20.3304C9.18588 20.3304 7.81859 20.0734 6.57059 19.5595C5.32259 19.0273 4.23976 18.3207 3.32212 17.4398C2.42282 16.5405 1.71624 15.4944 1.20235 14.3014C0.706824 13.0901 0.459059 11.7962 0.459059 10.4198V10.3647C0.459059 8.98824 0.716 7.70353 1.22988 6.51059C1.74376 5.29929 2.45035 4.244 3.34965 3.34471C4.26729 2.42706 5.35012 1.71129 6.59812 1.19741C7.86447 0.665176 9.24094 0.399059 10.7275 0.399059C12.2141 0.399059 13.5814 0.665176 14.8294 1.19741C16.0774 1.71129 17.1511 2.41788 18.0504 3.31718C18.968 4.19812 19.6746 5.24423 20.1701 6.45553C20.684 7.64847 20.9409 8.93318 20.9409 10.3096V10.3647ZM16.5087 10.4198V10.3647C16.5087 9.53882 16.3619 8.75882 16.0682 8.02471C15.7929 7.29059 15.3892 6.64824 14.8569 6.09765C14.3431 5.54706 13.7282 5.11576 13.0125 4.80376C12.2967 4.47341 11.5167 4.30823 10.6725 4.30823C9.80988 4.30823 9.02071 4.46423 8.30494 4.77623C7.60753 5.08823 7.00188 5.51953 6.488 6.07012C5.99247 6.62071 5.59788 7.26306 5.30424 7.99718C5.02894 8.71294 4.89129 9.48376 4.89129 10.3096V10.3647C4.89129 11.1906 5.02894 11.9706 5.30424 12.7047C5.59788 13.4388 6.00165 14.0812 6.51553 14.6318C7.04776 15.1824 7.66259 15.6228 8.36 15.9532C9.07576 16.2652 9.86494 16.4212 10.7275 16.4212C11.5718 16.4212 12.3518 16.2652 13.0675 15.9532C13.7833 15.6412 14.3889 15.2099 14.8845 14.6593C15.3984 14.1087 15.7929 13.4755 16.0682 12.7598C16.3619 12.0256 16.5087 11.2456 16.5087 10.4198ZM39.953 7.44659C39.953 8.56612 39.7511 9.548 39.3474 10.3922C38.9436 11.2365 38.3838 11.9431 37.6681 12.512C36.9707 13.0809 36.1448 13.5122 35.1904 13.8059C34.2544 14.0812 33.245 14.2188 32.1622 14.2188H28.9412V20H24.7017V0.729411H32.5751C33.7314 0.729411 34.7591 0.894587 35.6584 1.22494C36.5761 1.53694 37.3469 1.98659 37.9709 2.57388C38.6132 3.16118 39.0996 3.86776 39.43 4.69365C39.7787 5.50118 39.953 6.40047 39.953 7.39153V7.44659ZM35.6584 7.52918V7.47412C35.6584 6.51976 35.3464 5.79482 34.7224 5.29929C34.1168 4.80376 33.2817 4.556 32.2172 4.556H28.9412V10.4473H32.2998C33.3643 10.4473 34.1902 10.172 34.7775 9.62141C35.3648 9.05247 35.6584 8.35506 35.6584 7.52918ZM57.7637 20H43.0905V0.729411H57.626V4.50094H47.3025V8.41012H56.3872V12.1816H47.3025V16.2285H57.7637V20ZM78.6564 20H75.05L65.7175 7.74941V20H61.5331V0.729411H65.4422L74.4719 12.5946V0.729411H78.6564V20Z" fill="white"/>
</svg>
