<svg width="79" height="21" viewBox="0 0 79 21" fill="none" xmlns="http://www.w3.org/2000/svg">
<path d="M20.9409 10.9531C20.9409 12.3296 20.684 13.6234 20.1701 14.8347C19.6562 16.0277 18.9405 17.083 18.0228 18.0006C17.1235 18.8999 16.0407 19.6157 14.7744 20.1479C13.5264 20.6618 12.1591 20.9187 10.6725 20.9187C9.18588 20.9187 7.81859 20.6618 6.57059 20.1479C5.32259 19.6157 4.23976 18.9091 3.32212 18.0281C2.42282 17.1288 1.71624 16.0827 1.20235 14.8898C0.706824 13.6785 0.459059 12.3846 0.459059 11.0081V10.9531C0.459059 9.57661 0.716 8.29191 1.22988 7.09897C1.74376 5.88767 2.45035 4.83238 3.34965 3.93308C4.26729 3.01544 5.35012 2.29967 6.59812 1.78579C7.86447 1.25356 9.24094 0.987438 10.7275 0.987438C12.2141 0.987438 13.5814 1.25356 14.8294 1.78579C16.0774 2.29967 17.1511 3.00626 18.0504 3.90556C18.968 4.7865 19.6746 5.83261 20.1701 7.04391C20.684 8.23685 20.9409 9.52156 20.9409 10.898V10.9531ZM16.5087 11.0081V10.9531C16.5087 10.1272 16.3619 9.3472 16.0682 8.61308C15.7929 7.87897 15.3892 7.23661 14.8569 6.68603C14.3431 6.13544 13.7282 5.70414 13.0125 5.39214C12.2967 5.06179 11.5167 4.89661 10.6725 4.89661C9.80988 4.89661 9.02071 5.05261 8.30494 5.36461C7.60753 5.67661 7.00188 6.10791 6.488 6.6585C5.99247 7.20908 5.59788 7.85144 5.30424 8.58556C5.02894 9.30132 4.89129 10.0721 4.89129 10.898V10.9531C4.89129 11.779 5.02894 12.559 5.30424 13.2931C5.59788 14.0272 6.00165 14.6696 6.51553 15.2201C7.04776 15.7707 7.66259 16.2112 8.36 16.5416C9.07576 16.8536 9.86494 17.0096 10.7275 17.0096C11.5718 17.0096 12.3518 16.8536 13.0675 16.5416C13.7833 16.2296 14.3889 15.7983 14.8845 15.2477C15.3984 14.6971 15.7929 14.0639 16.0682 13.3481C16.3619 12.614 16.5087 11.834 16.5087 11.0081ZM39.953 8.03497C39.953 9.1545 39.7511 10.1364 39.3474 10.9806C38.9436 11.8248 38.3838 12.5314 37.6681 13.1004C36.9707 13.6693 36.1448 14.1006 35.1904 14.3943C34.2544 14.6696 33.245 14.8072 32.1622 14.8072H28.9412V20.5884H24.7017V1.31779H32.5751C33.7314 1.31779 34.7591 1.48297 35.6584 1.81332C36.5761 2.12532 37.3469 2.57497 37.9709 3.16226C38.6132 3.74956 39.0996 4.45614 39.43 5.28202C39.7787 6.08955 39.953 6.98885 39.953 7.97991V8.03497ZM35.6584 8.11756V8.0625C35.6584 7.10814 35.3464 6.3832 34.7224 5.88767C34.1168 5.39214 33.2817 5.14438 32.2172 5.14438H28.9412V11.0357H32.2998C33.3643 11.0357 34.1902 10.7604 34.7775 10.2098C35.3648 9.64085 35.6584 8.94344 35.6584 8.11756ZM57.7637 20.5884H43.0905V1.31779H57.626V5.08932H47.3025V8.9985H56.3872V12.77H47.3025V16.8168H57.7637V20.5884ZM78.6564 20.5884H75.05L65.7175 8.33779V20.5884H61.5331V1.31779H65.4422L74.4719 13.183V1.31779H78.6564V20.5884Z" fill="black"/>
</svg>
