<svg width="92" height="92" viewBox="0 0 92 92" fill="none" xmlns="http://www.w3.org/2000/svg">
<path d="M73.1171 23.5894C72.9426 23.5167 72.7555 23.4791 72.5665 23.4788H65.3158C64.9345 23.4788 64.5689 23.6302 64.2993 23.8998C64.0297 24.1694 63.8783 24.535 63.8783 24.9163C63.8783 25.2975 64.0297 25.6631 64.2993 25.9327C64.5689 26.2023 64.9345 26.3538 65.3158 26.3538H69.0964L58.2605 37.1911L51.5862 30.5153C51.3166 30.2458 50.9511 30.0944 50.5699 30.0944C50.1887 30.0944 49.8232 30.2458 49.5536 30.5153L38.8615 41.2074C38.7242 41.3401 38.6147 41.4987 38.5393 41.6741C38.464 41.8494 38.4243 42.0381 38.4227 42.2289C38.421 42.4198 38.4574 42.6091 38.5297 42.7858C38.6019 42.9624 38.7087 43.1229 38.8436 43.2579C38.9786 43.3929 39.1391 43.4996 39.3158 43.5719C39.4924 43.6442 39.6817 43.6805 39.8726 43.6789C40.0635 43.6772 40.2521 43.6376 40.4275 43.5622C40.6029 43.4869 40.7615 43.3774 40.8941 43.2401L50.5685 33.5657L57.2442 40.24C57.5138 40.5095 57.8793 40.6609 58.2605 40.6609C58.6417 40.6609 59.0073 40.5095 59.2768 40.24L71.129 28.3878V32.167C71.129 32.5483 71.2805 32.9139 71.5501 33.1835C71.8196 33.4531 72.1853 33.6045 72.5665 33.6045C72.9478 33.6045 73.3134 33.4531 73.583 33.1835C73.8526 32.9139 74.004 32.5483 74.004 32.167V24.9163C74.0035 24.6325 73.919 24.3552 73.7612 24.1193C73.6034 23.8834 73.3792 23.6981 73.1171 23.5894Z" fill="#FFBA0A"/>
<path d="M82.1345 6.37817H29.1094C27.2257 6.38046 25.4199 7.12986 24.088 8.46195C22.7562 9.79405 22.0072 11.6001 22.0053 13.4837V25.5228C17.2328 26.5492 13.6404 30.7984 13.6404 35.8742C13.6404 40.95 17.2313 45.1993 22.0053 46.2271V47.3771H15.4747C8.46401 47.3771 2.76001 53.0811 2.76001 60.0918V76.9062C2.76153 78.5253 3.40538 80.0776 4.55024 81.2225C5.6951 82.3674 7.24743 83.0112 8.86651 83.0127H10.8071V84.1843C10.8071 84.5655 10.9586 84.9312 11.2282 85.2008C11.4978 85.4704 11.8634 85.6218 12.2446 85.6218H36.2221C36.6034 85.6218 36.969 85.4704 37.2386 85.2008C37.5082 84.9312 37.6596 84.5655 37.6596 84.1843V67.7681L40.7129 72.483C41.2667 73.3372 42.0255 74.0392 42.9201 74.525C43.8147 75.0109 44.8167 75.2651 45.8347 75.2646H57.6711C59.3127 75.2646 60.8479 74.6264 61.9807 73.4807C62.5533 72.9164 63.0072 72.2432 63.3158 71.5009C63.6244 70.7586 63.7814 69.962 63.7776 69.1581C63.7757 67.5392 63.1317 65.987 61.9869 64.8423C60.8421 63.6975 59.29 63.0535 57.6711 63.0516L49.1869 63.0128L47.7092 60.7588H82.1345C84.0184 60.7561 85.8244 60.0065 87.1564 58.6742C88.4884 57.3419 89.2377 55.5357 89.24 53.6518V13.4837C89.2374 11.6 88.4879 9.79426 87.1559 8.46229C85.8239 7.13031 84.0181 6.38084 82.1345 6.37817ZM16.5154 35.8757C16.5154 31.6192 19.9769 28.1563 24.2319 28.1563C28.4869 28.1563 31.9499 31.6192 31.9499 35.8757C31.9499 40.1321 28.4869 43.5922 24.2319 43.5922C19.9769 43.5922 16.5154 40.1307 16.5154 35.8742V35.8757ZM49.2646 65.9266H57.6711C58.5279 65.9274 59.3494 66.2681 59.9553 66.8739C60.5611 67.4798 60.9018 68.3013 60.9026 69.1581C60.9026 70.0264 60.5691 70.8342 59.9481 71.4466C59.3472 72.0547 58.5393 72.3896 57.6711 72.3896H45.8347C45.2956 72.3894 44.7651 72.2545 44.2914 71.9972C43.8177 71.7399 43.4157 71.3683 43.1221 70.9162L37.4239 62.1187C37.3994 62.0813 37.3606 62.0612 37.3348 62.0267C37.2181 61.876 37.0719 61.7508 36.905 61.6588C36.7381 61.5668 36.5541 61.51 36.3644 61.4919C36.3141 61.4862 36.271 61.4632 36.2207 61.4632C36.179 61.4632 36.1431 61.4833 36.1028 61.4862C36.0047 61.4955 35.9078 61.5153 35.8139 61.5451C35.725 61.5701 35.6388 61.6038 35.5566 61.6457C35.5178 61.6673 35.4746 61.6687 35.4358 61.6932C35.3913 61.7219 35.3668 61.7694 35.3251 61.8024C35.1785 61.921 35.0572 62.0679 34.9685 62.2344C34.8799 62.4008 34.8256 62.5834 34.8091 62.7713C34.8048 62.8159 34.7832 62.8547 34.7832 62.9007V82.7468H13.6807V81.5824L13.6836 81.5752L13.6821 81.568V62.9007C13.6821 62.5194 13.5307 62.1538 13.2611 61.8842C12.9915 61.6146 12.6259 61.4632 12.2446 61.4632C11.8634 61.4632 11.4978 61.6146 11.2282 61.8842C10.9586 62.1538 10.8071 62.5194 10.8071 62.9007V80.1363H8.86651C8.00995 80.1355 7.18866 79.795 6.58284 79.1895C5.97702 78.5839 5.63615 77.7628 5.63501 76.9062V60.0918C5.63767 57.483 6.67521 54.9818 8.51993 53.137C10.3647 51.2923 12.8659 50.2548 15.4747 50.2521H32.0692C33.7038 50.2485 35.3133 50.6536 36.7514 51.4306C38.1894 52.2077 39.4104 53.332 40.3032 54.7012L46.7806 64.584C47.3268 65.4249 48.2555 65.9266 49.2646 65.9266ZM86.3665 53.6518C86.3653 54.7738 85.9191 55.8496 85.1257 56.643C84.3323 57.4364 83.2565 57.8827 82.1345 57.8838H45.8261L42.7096 53.1257C41.5557 51.3565 39.9779 49.9039 38.1195 48.8999C36.2612 47.8959 34.1814 47.3725 32.0692 47.3771H24.8803V46.4341C30.4175 46.0963 34.8249 41.4963 34.8249 35.8742C34.8249 30.2522 30.4175 25.6522 24.8803 25.3144V13.4837C24.8814 12.3623 25.3273 11.2871 26.1201 10.494C26.9129 9.70095 27.988 9.2547 29.1094 9.25317H82.1345C83.256 9.2547 84.3312 9.7009 85.1242 10.494C85.9173 11.287 86.3635 12.3622 86.365 13.4837L86.3665 53.6518Z" fill="#FFBA0A"/>
</svg>
